<?xml version="1.0" encoding="utf-8"?>
<!-- Generator: Adobe Illustrator 16.0.4, SVG Export Plug-In . SVG Version: 6.00 Build 0)  -->
<!DOCTYPE svg PUBLIC "-//W3C//DTD SVG 1.1//EN" "http://www.w3.org/Graphics/SVG/1.1/DTD/svg11.dtd">
<svg version="1.1" id="Layer_1" xmlns="http://www.w3.org/2000/svg" xmlns:xlink="http://www.w3.org/1999/xlink" x="0px" y="0px"
	 width="21.421px" height="20.294px" viewBox="0 0 21.421 20.294" enable-background="new 0 0 21.421 20.294" xml:space="preserve">
<g>
	<path id="path2078_2_" fill="#FFFFFF" stroke="#000000" stroke-width="0.75" d="M10.42,8.421c1.122,0.13,2.447,0.381,3.04,1.467
		c0.434,0.64,0.809,1.327,1.35,1.887c0.957,0.484,1.91,1.065,2.596,1.901c0.862,1.29,0.601,3.134-0.4,4.265
		c-1.121,1.026-2.82,1.763-4.314,1.383c-0.955-0.191-1.819-0.254-2.813,0.06c-0.919,0.258-1.834-0.058-2.813-0.167
		c-0.931-0.031-1.765-0.486-2.548-0.944c-0.914-0.585-1.483-1.645-1.421-2.733c0.003-1.635,1.232-2.989,2.616-3.708
		c0.59-0.287,1.21-0.598,1.491-1.235c0.402-0.735,0.753-1.659,1.645-1.91C9.349,8.503,9.886,8.43,10.42,8.421z"/>
	<path id="path2040_2_" fill="#3FA6CC" stroke="#000000" stroke-width="0.75" d="M1.079,5.708C1.32,4.857,2.008,4.07,2.92,3.955
		C3.572,3.87,4.248,4.036,4.821,4.344C5.869,5.041,6.478,6.222,6.823,7.4c0.173,0.563,0.292,1.166,0.148,1.75
		c-0.132,0.691-0.633,1.276-1.277,1.544c-0.836,0.502-1.946,0.435-2.743-0.114c-0.475-0.314-0.895-0.725-1.15-1.239
		C1.197,8.251,0.79,6.956,1.079,5.708z"/>
	<path id="path2071_2_" fill="#3FA6CC" stroke="#000000" stroke-width="0.75" d="M11.593,1.045c0,0,2.68,0.732,2.385,2.769
		c0,0-0.009,1.583-0.207,2.232c-0.199,0.649-0.425,2.334-3.4,1.637C9.202,7.41,8.381,8.187,7.652,6.089c0,0-0.506-1.472-0.042-3.024
		c0,0,0.468-1.613,1.812-2.102C9.421,0.963,10.55,0.572,11.593,1.045z"/>
	<path id="path2073_2_" fill="#3FA6CC" stroke="#000000" stroke-width="0.75" d="M18.849,4.197c0,0,1.764,0.522,1.574,2.54
		c0,0,0.1,1.621-0.86,3.096c0,0-0.971,1.822-2.262,2.017c0,0-1.427,0.442-2.461-1.746c0,0-0.737-2.484,0.407-4.156
		C15.247,5.947,16.581,3.466,18.849,4.197z"/>
</g>
<g>
</g>
<g>
</g>
<g>
</g>
<g>
</g>
<g>
</g>
<g>
</g>
</svg>
