<?xml version="1.0" encoding="utf-8"?>
<!-- Generator: Adobe Illustrator 16.0.4, SVG Export Plug-In . SVG Version: 6.00 Build 0)  -->
<!DOCTYPE svg PUBLIC "-//W3C//DTD SVG 1.1//EN" "http://www.w3.org/Graphics/SVG/1.1/DTD/svg11.dtd">
<svg version="1.1" id="Layer_1" xmlns="http://www.w3.org/2000/svg" xmlns:xlink="http://www.w3.org/1999/xlink" x="0px" y="0px"
	 width="44.062px" height="33.938px" viewBox="0 0 44.062 33.938" enable-background="new 0 0 44.062 33.938" xml:space="preserve">
<path fill="#00ACED" stroke="#0099ED" stroke-miterlimit="10" d="M5.542,29.965c5.339,3.002,12.302,3.74,18.06,1.879
	c4.092-1.328,8.645-4.75,11.234-8.463c1.391-1.975,3.176-5.752,3.594-7.66c0.271-1.235,0.387-1.379,2.215-2.527
	c1.076-0.665,2.115-1.423,2.336-1.656c0.381-0.452,0.354-0.457-1.117-0.302c-2.461,0.306-2.76,0.128-1.365-0.834
	c1.021-0.677,2.357-2.019,2.457-2.475c0.018-0.08-0.416-0.034-0.926,0.107c-0.541,0.162-1.705,0.331-2.564,0.396l-1.551,0.139
	l-1.121-1.177c-0.619-0.642-1.523-1.404-2.025-1.683c-1.287-0.677-3.395-1.082-4.725-0.924c-3.625,0.473-6.43,3.124-6.938,6.59
	l-0.207,1.333l-1.309-0.454c-4.752-1.691-8.566-4.725-11.42-9.039L8.78,1.079l-0.74,1.19c-1.598,2.662-1.645,5.833-0.078,8.317
	c0.827,1.364,0.551,1.473-1.156,0.395c-0.598-0.356-1.127-0.642-1.198-0.573c-0.229,0.147-0.12,2.733,0.178,3.812
	c0.404,1.497,1.54,3.125,2.927,4.246l1.181,0.908l-1.564-0.316c-1.505-0.33-1.563-0.314-1.526,0.285
	c0.154,1.865,1.871,4.184,4.059,5.51l1.542,0.928l-1.64,0.543c-2.421,0.764-5.1,0.909-7.637,0.408
	c-1.215-0.238-2.232-0.348-2.25-0.268C0.816,26.732,3.764,28.957,5.542,29.965z"/>
<g>
</g>
<g>
</g>
<g>
</g>
<g>
</g>
<g>
</g>
<g>
</g>
</svg>
