<?xml version="1.0" encoding="UTF-8" standalone="no"?>
<!-- Created with Inkscape (http://www.inkscape.org/) -->

<svg
   xmlns:dc="http://purl.org/dc/elements/1.1/"
   xmlns:cc="http://creativecommons.org/ns#"
   xmlns:rdf="http://www.w3.org/1999/02/22-rdf-syntax-ns#"
   xmlns:svg="http://www.w3.org/2000/svg"
   xmlns="http://www.w3.org/2000/svg"
   xmlns:xlink="http://www.w3.org/1999/xlink"
   version="1.0"
   width="96pt"
   height="96pt"
   id="svg2">
  <defs
     id="defs4">
    <linearGradient
       id="linearGradient4826">
      <stop
         id="stop4828"
         style="stop-color:#ffffff;stop-opacity:0"
         offset="0" />
      <stop
         id="stop4830"
         style="stop-color:#000000;stop-opacity:0.21176471"
         offset="0.6111111" />
      <stop
         id="stop4832"
         style="stop-color:#000000;stop-opacity:1"
         offset="1" />
    </linearGradient>
    <linearGradient
       id="linearGradient2204">
      <stop
         id="stop2212"
         style="stop-color:#ff8500;stop-opacity:1"
         offset="0" />
      <stop
         id="stop2210"
         style="stop-color:#000000;stop-opacity:1"
         offset="1" />
    </linearGradient>
    <linearGradient
       id="linearGradient5746">
      <stop
         id="stop5748"
         style="stop-color:#ffffff;stop-opacity:1"
         offset="0" />
      <stop
         id="stop4822"
         style="stop-color:#ffffff;stop-opacity:0.21428572"
         offset="0.6111111" />
      <stop
         id="stop5750"
         style="stop-color:#000000;stop-opacity:0"
         offset="1" />
    </linearGradient>
    <linearGradient
       id="linearGradient3095">
      <stop
         id="stop3097"
         style="stop-color:#9d92b9;stop-opacity:1"
         offset="0" />
      <stop
         id="stop3101"
         style="stop-color:#311f85;stop-opacity:1"
         offset="0.66666669" />
      <stop
         id="stop3099"
         style="stop-color:#000000;stop-opacity:1"
         offset="1" />
    </linearGradient>
    <linearGradient
       x1="49.109367"
       y1="24.890625"
       x2="154.01561"
       y2="142.57812"
       id="linearGradient3093"
       xlink:href="#linearGradient3095"
       gradientUnits="userSpaceOnUse" />
    <radialGradient
       cx="61.328125"
       cy="48.4375"
       r="37.109375"
       fx="61.328125"
       fy="48.4375"
       id="radialGradient5752"
       xlink:href="#linearGradient5746"
       gradientUnits="userSpaceOnUse"
       gradientTransform="matrix(0.856623,0.01635079,-0.01528858,0.800973,-13.62661,-11.33387)" />
    <radialGradient
       cx="61.328125"
       cy="48.4375"
       r="37.109375"
       fx="61.328125"
       fy="48.4375"
       id="radialGradient1344"
       xlink:href="#linearGradient5746"
       gradientUnits="userSpaceOnUse"
       gradientTransform="matrix(0.856623,0.01635079,-0.01528858,0.800973,-13.62661,-11.33387)" />
    <linearGradient
       x1="23.718742"
       y1="80.078125"
       x2="177.06248"
       y2="80.078125"
       id="linearGradient2215"
       xlink:href="#linearGradient3095"
       gradientUnits="userSpaceOnUse" />
    <linearGradient
       x1="23.718742"
       y1="80.078125"
       x2="177.06248"
       y2="80.078125"
       id="linearGradient1361"
       xlink:href="#linearGradient3095"
       gradientUnits="userSpaceOnUse" />
    <radialGradient
       cx="61.328125"
       cy="48.4375"
       r="37.109375"
       fx="61.328125"
       fy="48.4375"
       id="radialGradient1363"
       xlink:href="#linearGradient5746"
       gradientUnits="userSpaceOnUse"
       gradientTransform="matrix(0.856623,0.01635079,-0.01528858,0.800973,-13.62661,-11.33387)" />
    <linearGradient
       x1="23.718742"
       y1="80.078125"
       x2="177.06248"
       y2="80.078125"
       id="linearGradient1379"
       xlink:href="#linearGradient3095"
       gradientUnits="userSpaceOnUse" />
    <radialGradient
       cx="61.328125"
       cy="48.4375"
       r="37.109375"
       fx="61.328125"
       fy="48.4375"
       id="radialGradient1381"
       xlink:href="#linearGradient5746"
       gradientUnits="userSpaceOnUse"
       gradientTransform="matrix(0.856623,0.01635079,-0.01528858,0.800973,-13.62661,-11.33387)" />
  </defs>
  <metadata
     id="metadata7">
    <rdf:RDF>
      <cc:Work
         rdf:about="">
        <dc:format>image/svg+xml</dc:format>
        <dc:type
           rdf:resource="http://purl.org/dc/dcmitype/StillImage" />
        <cc:license
           rdf:resource="http://creativecommons.org/licenses/by/2.0/" />
        <dc:title></dc:title>
        <dc:creator>
          <cc:Agent>
            <dc:title>Andrew Thornton</dc:title>
          </cc:Agent>
        </dc:creator>
        <dc:contributor>
          <cc:Agent>
            <dc:title>Thanks to Johan Van Den Berg for the rings</dc:title>
          </cc:Agent>
        </dc:contributor>
      </cc:Work>
      <cc:License
         rdf:about="http://creativecommons.org/licenses/by/2.0/">
        <cc:permits
           rdf:resource="http://web.resource.org/cc/Reproduction" />
        <cc:permits
           rdf:resource="http://web.resource.org/cc/Distribution" />
        <cc:requires
           rdf:resource="http://web.resource.org/cc/Notice" />
        <cc:requires
           rdf:resource="http://web.resource.org/cc/Attribution" />
        <cc:permits
           rdf:resource="http://web.resource.org/cc/DerivativeWorks" />
      </cc:License>
    </rdf:RDF>
  </metadata>
  <g
     id="layer3"
     style="display:inline" />
  <g
     id="layer2"
     style="display:inline" />
  <g
     id="layer1"
     style="display:inline">
    <g
       id="g1376">
      <path
         d="m 78.589133,98.931508 c 1.55446,0.56032 2.43266,1.204002 2.43266,1.879772 0,2.23558 -9.632,4.05443 -21.48848,4.05443 -11.85649,0 -21.47006,-1.81885 -21.47006,-4.05443 0,-0.63748 0.78107,-1.250952 2.17465,-1.787632 -5.32565,0.92243 -8.6433,2.213262 -8.6433,3.648992 0,2.79754 12.59085,5.06803 28.10457,5.06803 15.51373,0 28.10457,-2.27049 28.10457,-5.06803 0,-1.4862 -3.55722,-2.813842 -9.21461,-3.741132 z"
         id="path2471"
         style="fill:#1894c7;fill-opacity:1;fill-rule:nonzero;stroke:#000000;stroke-width:0.80000001;stroke-miterlimit:4;stroke-opacity:1;stroke-dasharray:none;display:inline" />
      <g
         transform="matrix(0.969071,-0.367794,0.244231,0.939224,-12.57906,25.52206)"
         id="g2506">
        <path
           d="m 58.980763,53.399966 c -12.19994,0.136424 -22.0625,8.928352 -22.0625,19.71875 0,4.772132 1.91987,9.152043 5.125,12.562502 -1.54871,1.51053 -2.53125,3.6607 -2.53125,6.0625 0,2.28115 0.42894,5.06653 1.84375,6.5625 1.41482,1.49597 3.81135,1.718752 5.96875,1.718752 2.1574,0 4.71018,-0.09778 6.125,-1.593752 1.26559,-1.3382 1.62354,-3.80235 1.6875,-5.9375 1.33635,0.22013 2.71659,0.3125 4.125,0.3125 1.26388,0 2.51195,-0.0719 3.71875,-0.25 0.06955,2.11963 0.4348,4.55044 1.6875,5.875 1.41483,1.49597 3.9676,1.593752 6.125,1.593752 2.15739,0 4.52268,-0.222782 5.9375,-1.718752 1.41482,-1.49597 1.875,-4.28135 1.875,-6.5625 0,-2.28116 -0.89769,-4.34778 -2.3125,-5.84375 3.31695,-3.437994 5.3125,-7.917076 5.3125,-12.781252 0,-10.875363 -10.01098,-19.718749 -22.34375,-19.71875 -0.09635,0 -0.18519,-0.0011 -0.28125,0 z"
           id="path2473"
           style="fill:#ffffff;fill-opacity:1;fill-rule:evenodd;stroke:#000000;stroke-width:1px;stroke-linecap:butt;stroke-linejoin:miter;stroke-opacity:1;display:inline" />
        <path
           d="m 78.798593,63.851575 c 0,2.23558 -11.91175,5.729447 -20.13644,5.729447 -8.22468,0 -18.83365,-3.42881 -18.83365,-5.66439 0,-0.63748 -0.72921,0.697949 0.2375,0.161269 -1.22671,0.354002 -1.69594,2.6444 -1.88611,2.84401 -1.9297,2.025458 9.83566,5.534071 20.59732,5.534071 10.76167,0 21.1774,-3.333223 21.30752,-6.127735 0.03419,-0.734151 -1.28614,-3.152442 -1.28614,-2.476672 z"
           id="path2521"
           style="fill:#1894c7;fill-opacity:1;fill-rule:nonzero;stroke:#000000;stroke-width:1;stroke-miterlimit:4;stroke-opacity:1;stroke-dasharray:none;display:inline" />
        <path
           d="m 81.380803,70.913837 c 0,2.23558 -16.01709,5.289147 -22.50228,5.23533 -6.95549,-0.05735 -21.766,-3.69368 -21.95766,-4.105179 -0.14645,-0.31443 0.03366,1.177238 0.11277,2.610787 0.10779,1.9532 11.03452,4.713985 21.79618,4.713985 10.76167,0 22.72918,-2.987658 22.67488,-4.610889 -0.02414,-0.736931 -0.12389,-4.519804 -0.12389,-3.844034 z"
           id="path2523"
           style="fill:#1894c7;fill-opacity:1;fill-rule:nonzero;stroke:#000000;stroke-width:1;stroke-miterlimit:4;stroke-opacity:1;stroke-dasharray:none;display:inline" />
        <path
           d="m 44.067243,99.505728 0.05252,-3.37222"
           id="path2533"
           style="fill:none;stroke:#000000;stroke-width:0.95428121;stroke-linecap:round;stroke-linejoin:miter;stroke-miterlimit:4;stroke-opacity:1;stroke-dasharray:none" />
        <path
           d="m 47.109733,99.505728 0.05252,-3.37222"
           id="path4281"
           style="fill:none;stroke:#000000;stroke-width:0.95428121;stroke-linecap:round;stroke-linejoin:miter;stroke-miterlimit:4;stroke-opacity:1;stroke-dasharray:none;display:inline" />
        <path
           d="m 50.152343,99.505728 0.05252,-3.37222"
           id="path4283"
           style="fill:none;stroke:#000000;stroke-width:0.95428121;stroke-linecap:round;stroke-linejoin:miter;stroke-miterlimit:4;stroke-opacity:1;stroke-dasharray:none;display:inline" />
        <path
           d="m 67.948223,99.505728 0.05252,-3.37222"
           id="path4285"
           style="fill:none;stroke:#000000;stroke-width:0.95428121;stroke-linecap:round;stroke-linejoin:miter;stroke-miterlimit:4;stroke-opacity:1;stroke-dasharray:none;display:inline" />
        <path
           d="m 70.934293,99.505728 0.05252,-3.37222"
           id="path4287"
           style="fill:none;stroke:#000000;stroke-width:0.95428121;stroke-linecap:round;stroke-linejoin:miter;stroke-miterlimit:4;stroke-opacity:1;stroke-dasharray:none;display:inline" />
        <path
           d="m 73.991633,99.505728 0.05252,-3.37222"
           id="path4289"
           style="fill:none;stroke:#000000;stroke-width:0.95428121;stroke-linecap:round;stroke-linejoin:miter;stroke-miterlimit:4;stroke-opacity:1;stroke-dasharray:none;display:inline" />
      </g>
      <g
         transform="matrix(0.965044,0.262086,-0.262086,0.965044,11.39306,-14.49971)"
         id="g2517">
        <path
           d="m 87.5,33.671875 a 32.03125,28.90625 0 1 1 -64.0625,0 32.03125,28.90625 0 1 1 64.0625,0 z"
           transform="translate(3.430783,2.043258)"
           id="path2475"
           style="fill:#ffffff;fill-opacity:1;stroke:#000000;stroke-opacity:1;display:inline" />
        <path
           d="m 59.031383,6.805081 c -6.10983,0 -11.76538,1.630141 -16.625,4.312506 11.57893,3.0339 11.5786,2.37623 7.5,4 -3.59314,1.4305 -3.37716,1.75319 -0.65625,2.78125 2.72091,1.02806 5.96383,2.13646 4.125,3.031247 -6.75451,3.286789 5.71875,7.156253 5.71875,7.15625 l 0.09375,0 c 0,0 12.47325,-3.869465 5.71875,-7.15625 -1.83883,-0.894777 1.37285,-1.971937 4.09375,-2.999997 2.72091,-1.02807 2.93689,-1.382 -0.65625,-2.8125 -4.05226,-1.61329 -3.97996,-1.00182 7.37499,-3.96875 -4.87275,-2.703095 -10.55214,-4.343756 -16.68749,-4.343756 z"
           id="path2477"
           style="fill:#1894c7;fill-opacity:1;stroke:#000000;stroke-opacity:1;display:inline" />
        <path
           d="m 26.294643,9.882539 0.40625,2.687497 c 0.25194,1.692746 0.58187,2.921471 1.25,4.093751 0.66812,1.17228 1.66479,2.274124 3.21875,3.75 0.58982,0.560185 0.66046,0.748256 1.03125,1.15625 l 6.9375,0 0,-8.218751 c -0.31034,-0.183577 -0.50434,-0.166305 -0.84375,-0.4375 -1.38938,-1.110134 -2.65949,-1.864407 -4.0625,-2.34375 -1.403,-0.479347 -2.92134,-0.687497 -4.78125,-0.687497 l -3.15625,0 z"
           id="path2479"
           style="fill:#ffffff;fill-opacity:1;stroke:none;display:inline" />
        <path
           d="m 91.782583,10.326575 -3.21875,0.03125 c -3.61778,0.01244 -6.91182,1.141336 -9.375,3.21875 -0.86878,0.732711 -1.53254,1.05254 -1.96875,1 l 0,9.53125 c 0,0 4.66622,0.400214 7.09181,-0.103216 0.59815,-0.124148 -0.06357,-0.692874 2.31444,-2.865534 3.01501,-2.75464 4.24287,-4.93344 4.78125,-8.375 l 0.375,-2.4375 z"
           id="path2481"
           style="fill:#ffffff;fill-opacity:1;stroke:none;display:inline" />
        <path
           d="m 26.739393,13.213662 0.1875,2.21875 c 0.2012,1.130697 0.71645,1.841955 1.25,2.625 0.53354,0.783047 1.07156,1.639162 2.3125,2.625 0.47102,0.374184 2.7039,1.571223 3,1.84375 0,1e-6 0.68248,-1.365255 1.90625,-2.71875 1.22377,-1.353495 2.53125,-2.71875 2.53125,-2.71875 -0.24783,-0.122623 -1.47895,-1.225101 -1.75,-1.40625 -1.10952,-0.741538 -2.12959,-1.242314 -3.25,-1.5625 -1.1204,-0.32019 -2.33502,-0.797668 -3.8125,-0.90625 -1.55202,-0.114058 -2.375,0 -2.375,0 z m 62.875,0.125 c -1.47748,0.108582 -2.6921,0.586062 -3.8125,0.90625 -1.12041,0.320186 -2.14048,0.820964 -3.25,1.5625 -0.27105,0.181149 -1.53341,1.283625 -1.78125,1.40625 0,0 1.33873,1.365257 2.5625,2.71875 1.22377,1.353495 1.90625,2.718749 1.90625,2.71875 0.2961,-0.272527 2.52898,-1.469564 3,-1.84375 1.24094,-0.985838 1.77896,-1.841955 2.3125,-2.625 0.53355,-0.783045 1.0488,-1.494301 1.25,-2.625 l 0.15625,-2.21875 c 0,0 -0.79172,-0.114056 -2.34375,0 z m -30.71875,28.03125 c -0.11515,-0.0184 -7.78125,2.525992 -7.78125,8.8125 0,6.2865 3.41742,7.625001 7.6875,7.625 0.04286,0 0.14464,0 0.1875,0 4.27008,2e-6 7.6875,-1.3385 7.6875,-7.625 0,-6.286512 -7.6661,-8.830896 -7.78125,-8.8125 z"
           id="path2483"
           style="fill:#c2c2c2;fill-opacity:1;fill-rule:evenodd;stroke:none;display:inline" />
        <path
           d="m 90.650903,8.855152 c -2.65619,-0.19487 -7.06321,0.507489 -9.5625,1.687494 l -2.78124,1.3125 -2.8125,-1.362681 0.05777,1.003759 c 0.64962,0.431628 1.06723,1.546354 1.06723,2.077672 0,1.3925 0.92715,1.410471 2.56249,0.03125 2.46318,-2.077414 5.75722,-3.206308 9.375,-3.21875 l 3.21875,-0.03125 -0.375,2.4375 c -0.53839,3.441561 -1.76624,5.620361 -4.78125,8.375 -2.37801,2.172661 -2.71034,3.179807 -0.75473,2.518932 0.4882,-0.164981 1.29534,-0.154457 1.91293,0.543568 l 0.37305,0 -0.78125,-2.15625 1.6875,-1.90625 c 3.31608,-3.741271 5.21124,-9.543674 3.53125,-10.812495 -0.36087,-0.27255 -1.0521,-0.43505 -1.9375,-0.499999 z"
           id="path2485"
           style="fill:#000000;fill-opacity:1;stroke:none;display:inline" />
        <path
           d="m 42.497403,10.355202 c -0.84851,0.501187 -1.6433,0.964495 -2.09375,1.09375 -0.5784,0.165968 -0.94573,0.06504 -1.4375,-0.21875 -1.51205,-0.872568 -2.70684,-1.41839 -4.03125,-1.781251 -1.3244,-0.36285 -2.78616,-0.536699 -4.78124,-0.624999 -1.27752,-0.05654 -2.24106,-0.08906 -2.96875,-0.03125 -0.7277,0.05781 -1.2077,0.217069 -1.50001,0.499999 -0.29231,0.28293 -0.40364,0.693678 -0.375,1.312501 0.02864,0.618824 0.20237,1.434512 0.4375,2.5 0.26907,1.219236 0.58543,2.137387 1.28126,3.312497 0.69582,1.17512 1.75057,2.62284 3.5,4.8125 0.16167,0.20235 -2.26934,4.145973 -0.94417,3.316022 l 0.86444,-0.972271 c 0.29848,-1.114441 3.15583,0.605182 3.65517,0.228553 0.43682,-0.32947 -1.03933,-1.728954 -2.38794,-3.009804 -1.55395,-1.47588 -2.55063,-2.57772 -3.21875,-3.75 -0.66812,-1.17228 -0.99806,-2.401002 -1.25,-4.093747 l -0.40625,-2.6875 3.15625,0 c 1.85992,0 3.37824,0.208156 4.78124,0.6875 1.40301,0.479344 2.67312,1.233616 4.0625,2.34375 0.98824,0.789618 1.89795,1.209495 2.46875,1.25 0.2854,0.02025 0.46885,-0.04552 0.5625,-0.218749 0.09365,-0.173227 -0.1713,-0.353272 -0.32767,-0.724113 -0.08284,-0.19645 -0.21304,-0.249997 -0.13166,-0.804917 0.08326,-0.567704 0.2023,-0.616992 1.04014,-1.450825 l 0.04419,-0.988896 z"
           id="path2487"
           style="fill:#000000;fill-opacity:1;stroke:none;display:inline" />
        <path
           d="m 42.650763,39.386308 c -0.04364,-0.17456 -3.70684,2.00658 -14.9375,2.875 0.91124,3.26445 2.35026,6.34497 4.375,9.0625 l 0.3125,0.03125 c 0,0 10.89135,-9.40349 10.25,-11.96875 z"
           id="path2489"
           style="fill:#1894c7;fill-opacity:1;stroke:#000000;stroke-opacity:1;display:inline" />
        <path
           d="m 75.104303,39.412907 c 0.04364,-0.17456 3.70684,2.00658 14.9375,2.875 -0.91124,3.26445 -2.35026,6.34497 -4.375,9.0625 l -0.3125,0.03125 c 0,0 -10.89135,-9.40349 -10.25,-11.96875 z"
           id="path2491"
           style="fill:#1894c7;fill-opacity:1;stroke:#000000;stroke-opacity:1;display:inline" />
        <g
           transform="translate(-52.16863,80.47631)"
           id="g2493"
           style="display:inline">
          <path
             d="m 120.57223,-35.450059 c 0,-0.380539 9.78353,-4.154856 10.76993,-4.154856 0.22456,0 0.4083,0.190252 0.4083,0.422775 0,0.380538 -9.78353,4.154855 -10.76993,4.154855 -0.22456,0 -0.4083,-0.190251 -0.4083,-0.422774 z"
             id="path2495"
             style="fill:#000000;display:inline" />
          <path
             d="m 120.57223,-30.853641 c 0,0.380539 9.78353,4.154856 10.76993,4.154856 0.22456,0 0.4083,-0.190252 0.4083,-0.422775 0,-0.380538 -9.78353,-4.154855 -10.76993,-4.154855 -0.22456,0 -0.4083,0.190251 -0.4083,0.422774 z"
             id="path2497"
             style="fill:#000000;display:inline" />
          <path
             d="m 122.1255,-32.890985 c 0.13637,0.355263 10.62267,0.372787 11.54357,0.01929 0.20963,-0.08048 0.31299,-0.323938 0.22966,-0.541018 -0.13637,-0.355263 -10.62267,-0.372786 -11.54357,-0.01929 -0.20963,0.08048 -0.31299,0.323937 -0.22966,0.541017 z"
             id="path2499"
             style="fill:#000000;display:inline" />
        </g>
        <path
           d="m 54.165663,53.831559 c 0,-0.260894 1.5977,0.02251 2.16328,-0.14084 1.29982,-0.375427 2.57995,-2.502646 2.13749,-3.551916 -0.1849,-0.438486 -0.83014,-0.79725 -1.43387,-0.79725 -0.63826,0 -1.26016,-0.465774 -1.48584,-1.112837 -0.7864,-2.254829 3.67559,-3.881088 6.08647,-2.218314 1.38992,0.958627 1.03388,3.027568 -0.55648,3.233734 -2.36409,0.306472 -2.08623,2.745775 0.50062,4.394652 0.90436,0.576446 2.53609,-0.429995 2.5896,0.389688 0.03139,0.480837 -2.60507,0.863487 -3.62099,-0.123033 -1.42329,-1.382097 -1.42943,-1.378093 -2.73822,-0.187055 -1.37291,1.249388 -3.64206,0.955302 -3.64206,0.113171 z"
           id="path2501"
           style="fill:#000000;display:inline" />
        <g
           transform="translate(-52.05194,80.36993)"
           id="g2503"
           style="display:inline">
          <path
             d="m 99.455331,-44.74319 c -2.589824,-0.201894 -5.063517,2.837841 -1.136714,4.540545 3.926793,1.702705 5.709283,-1.589257 2.996763,-3.972977 -0.51668,-0.454055 -0.44558,-0.4573 -1.860049,-0.567568 z"
             id="path2505"
             style="fill:#000000;fill-opacity:1;fill-rule:evenodd;stroke:#000000;stroke-width:0.35111454px;stroke-linecap:butt;stroke-linejoin:miter;stroke-opacity:1" />
          <path
             d="m 122.4477,-44.752077 c 2.58982,-0.201894 5.06351,2.837841 1.13671,4.540545 -3.9268,1.702705 -5.70929,-1.589257 -2.99677,-3.972977 0.51668,-0.454055 0.44558,-0.4573 1.86006,-0.567568 z"
             id="path2507"
             style="fill:#000000;fill-opacity:1;fill-rule:evenodd;stroke:#000000;stroke-width:0.35111454px;stroke-linecap:butt;stroke-linejoin:miter;stroke-opacity:1;display:inline" />
        </g>
        <g
           transform="matrix(-1,0,0,1,169.9677,80.47631)"
           id="g2509"
           style="display:inline">
          <path
             d="m 120.57223,-35.450059 c 0,-0.380539 9.78353,-4.154856 10.76993,-4.154856 0.22456,0 0.4083,0.190252 0.4083,0.422775 0,0.380538 -9.78353,4.154855 -10.76993,4.154855 -0.22456,0 -0.4083,-0.190251 -0.4083,-0.422774 z"
             id="path2511"
             style="fill:#000000;display:inline" />
          <path
             d="m 120.57223,-30.853641 c 0,0.380539 9.78353,4.154856 10.76993,4.154856 0.22456,0 0.4083,-0.190252 0.4083,-0.422775 0,-0.380538 -9.78353,-4.154855 -10.76993,-4.154855 -0.22456,0 -0.4083,0.190251 -0.4083,0.422774 z"
             id="path2513"
             style="fill:#000000;display:inline" />
          <path
             d="m 122.1255,-32.890985 c 0.13637,0.355263 10.62267,0.372787 11.54357,0.01929 0.20963,-0.08048 0.31299,-0.323938 0.22966,-0.541018 -0.13637,-0.355263 -10.62267,-0.372786 -11.54357,-0.01929 -0.20963,0.08048 -0.31299,0.323937 -0.22966,0.541017 z"
             id="path2515"
             style="fill:#000000;display:inline" />
        </g>
        <path
           d="m 29.401313,24.634634 c -1.26933,3.11088 -2.45821,6.280568 -2.45821,9.787428 0,0.16122 0.03814,0.50111 0.04106,0.6617 l 13.97965,-0.04288 -11.5625,-10.40625 z"
           id="path2517"
           style="fill:#1894c7;fill-opacity:1;stroke:#000000;stroke-opacity:1;display:inline" />
        <path
           d="m 88.390403,24.5498 c 1.26933,3.11088 2.47965,6.559273 2.47965,10.066133 0,0.16122 -0.03814,0.30816 -0.04106,0.46875 l -14.04397,0 11.60538,-10.534883 z"
           id="path2519"
           style="fill:#1894c7;fill-opacity:1;stroke:#000000;stroke-opacity:1;display:inline" />
      </g>
      <path
         d="m 88.574613,97.423418 c 8.55214,1.57304 13.914057,3.855372 13.914057,6.376512 0,4.74568 -19.027677,8.58803 -42.479367,8.58803 -23.45169,0 -42.4978,-3.84235 -42.4978,-8.58803 0,-2.33576 4.61057,-4.457982 12.08958,-6.007922 -14.98568,1.86864 -24.8610302,5.056802 -24.8610302,8.661722 0,5.74643 25.0864902,10.3941 55.9879902,10.3941 30.90152,0 55.969557,-4.64767 55.969557,-10.3941 0,-3.86086 -11.32111,-7.233032 -28.122987,-9.030312 z"
         id="path2529"
         style="fill:#1894c7;fill-opacity:1;stroke:#000000;stroke-width:1;stroke-miterlimit:4;stroke-opacity:1;stroke-dasharray:none;display:inline" />
      <g
         transform="matrix(0.575827,0.817571,-0.817571,0.575827,52.64518,-78.20111)"
         id="g4318">
        <path
           d="m 130.40625,68.6875 c 0.16188,-0.09333 0.39524,-0.067 0.53125,-0.1875 0.49897,-0.442054 0.8125,-1.04468 0.8125,-1.71875 0,-0.674072 -0.31353,-1.276696 -0.8125,-1.71875 -0.49897,-0.442054 -1.17665,-0.718751 -1.9375,-0.71875 -0.49529,0 -0.87941,0.2659 -1.28125,0.46875 0.55868,1.522879 1.46449,2.829365 2.6875,3.875 z"
           id="path4310"
           style="fill:#ffffff;fill-opacity:1;fill-rule:evenodd;stroke:#000000;stroke-width:1px;stroke-linecap:butt;stroke-linejoin:miter;stroke-opacity:1;display:inline" />
        <path
           d="m 135.75,70.90625 c 0.22157,-0.351687 0.53125,-0.662643 0.53125,-1.09375 0,-0.674072 -0.31353,-1.276696 -0.8125,-1.71875 -0.49897,-0.442054 -1.17664,-0.718749 -1.9375,-0.71875 -0.76086,0 -1.46978,0.276696 -1.96875,0.71875 -0.29938,0.265232 -0.33193,0.667368 -0.46875,1.03125 1.33696,0.977854 2.91579,1.589446 4.65625,1.78125 z"
           id="path4313"
           style="fill:#ffffff;fill-opacity:1;fill-rule:evenodd;stroke:#000000;stroke-width:1px;stroke-linecap:butt;stroke-linejoin:miter;stroke-opacity:1;display:inline" />
        <path
           d="m 141.4375,69.6875 c -0.13821,-0.271785 -0.14014,-0.604432 -0.375,-0.8125 -0.49897,-0.442054 -1.20789,-0.718749 -1.96875,-0.71875 -0.76086,0 -1.43853,0.276696 -1.9375,0.71875 -0.49897,0.442054 -0.8125,1.044678 -0.8125,1.71875 0,0.180719 0.17665,0.299183 0.21875,0.46875 0.0532,0.0068 0.10081,0.03125 0.15625,0.03125 1.75801,0 3.29798,-0.605157 4.71875,-1.40625 z"
           id="path4316"
           style="fill:#ffffff;fill-opacity:1;fill-rule:evenodd;stroke:#000000;stroke-width:1px;stroke-linecap:butt;stroke-linejoin:miter;stroke-opacity:1;display:inline" />
        <path
           d="m 136.71875,52.28125 c -5.32789,0 -9.65625,4.211552 -9.65625,9.40625 0,1.111043 0.29313,2.135172 0.65625,3.125 0.40184,-0.20285 0.78596,-0.46875 1.28125,-0.46875 0.76085,-10e-7 1.43853,0.276696 1.9375,0.71875 0.49897,0.442054 0.8125,1.044678 0.8125,1.71875 0,0.67407 -0.31353,1.276696 -0.8125,1.71875 -0.13601,0.120496 -0.36937,0.09417 -0.53125,0.1875 0.20561,0.175786 0.46823,0.277126 0.6875,0.4375 0.13682,-0.363882 0.16937,-0.766018 0.46875,-1.03125 0.49897,-0.442054 1.20789,-0.71875 1.96875,-0.71875 0.76086,10e-7 1.43853,0.276696 1.9375,0.71875 0.49897,0.442054 0.8125,1.044678 0.8125,1.71875 0,0.431107 -0.30968,0.742063 -0.53125,1.09375 0.27879,0.03072 0.5363,0.121191 0.8125,0.15625 -0.0421,-0.169567 -0.21875,-0.288031 -0.21875,-0.46875 0,-0.674072 0.31353,-1.276696 0.8125,-1.71875 0.49897,-0.442054 1.17664,-0.71875 1.9375,-0.71875 0.76086,10e-7 1.46978,0.276696 1.96875,0.71875 0.23486,0.208068 0.23679,0.540715 0.375,0.8125 2.88507,-1.626729 4.9375,-4.519363 4.9375,-8 0,-5.194697 -4.32836,-9.406251 -9.65625,-9.40625 z"
           id="path4291"
           style="fill:#ffffff;fill-opacity:1;fill-rule:evenodd;stroke:#000000;stroke-width:1px;stroke-linecap:butt;stroke-linejoin:miter;stroke-opacity:1;display:inline" />
      </g>
      <g
         transform="matrix(0.333688,0.942684,0.942684,-0.333688,-67.13041,-40.05821)"
         id="g4324"
         style="display:inline">
        <path
           d="m 130.40625,68.6875 c 0.16188,-0.09333 0.39524,-0.067 0.53125,-0.1875 0.49897,-0.442054 0.8125,-1.04468 0.8125,-1.71875 0,-0.674072 -0.31353,-1.276696 -0.8125,-1.71875 -0.49897,-0.442054 -1.17665,-0.718751 -1.9375,-0.71875 -0.49529,0 -0.87941,0.2659 -1.28125,0.46875 0.55868,1.522879 1.46449,2.829365 2.6875,3.875 z"
           id="path4326"
           style="fill:#ffffff;fill-opacity:1;fill-rule:evenodd;stroke:#000000;stroke-width:1px;stroke-linecap:butt;stroke-linejoin:miter;stroke-opacity:1;display:inline" />
        <path
           d="m 135.75,70.90625 c 0.22157,-0.351687 0.53125,-0.662643 0.53125,-1.09375 0,-0.674072 -0.31353,-1.276696 -0.8125,-1.71875 -0.49897,-0.442054 -1.17664,-0.718749 -1.9375,-0.71875 -0.76086,0 -1.46978,0.276696 -1.96875,0.71875 -0.29938,0.265232 -0.33193,0.667368 -0.46875,1.03125 1.33696,0.977854 2.91579,1.589446 4.65625,1.78125 z"
           id="path4328"
           style="fill:#ffffff;fill-opacity:1;fill-rule:evenodd;stroke:#000000;stroke-width:1px;stroke-linecap:butt;stroke-linejoin:miter;stroke-opacity:1;display:inline" />
        <path
           d="m 141.4375,69.6875 c -0.13821,-0.271785 -0.14014,-0.604432 -0.375,-0.8125 -0.49897,-0.442054 -1.20789,-0.718749 -1.96875,-0.71875 -0.76086,0 -1.43853,0.276696 -1.9375,0.71875 -0.49897,0.442054 -0.8125,1.044678 -0.8125,1.71875 0,0.180719 0.17665,0.299183 0.21875,0.46875 0.0532,0.0068 0.10081,0.03125 0.15625,0.03125 1.75801,0 3.29798,-0.605157 4.71875,-1.40625 z"
           id="path4330"
           style="fill:#ffffff;fill-opacity:1;fill-rule:evenodd;stroke:#000000;stroke-width:1px;stroke-linecap:butt;stroke-linejoin:miter;stroke-opacity:1;display:inline" />
        <path
           d="m 136.71875,52.28125 c -5.32789,0 -9.65625,4.211552 -9.65625,9.40625 0,1.111043 0.29313,2.135172 0.65625,3.125 0.40184,-0.20285 0.78596,-0.46875 1.28125,-0.46875 0.76085,-10e-7 1.43853,0.276696 1.9375,0.71875 0.49897,0.442054 0.8125,1.044678 0.8125,1.71875 0,0.67407 -0.31353,1.276696 -0.8125,1.71875 -0.13601,0.120496 -0.36937,0.09417 -0.53125,0.1875 0.20561,0.175786 0.46823,0.277126 0.6875,0.4375 0.13682,-0.363882 0.16937,-0.766018 0.46875,-1.03125 0.49897,-0.442054 1.20789,-0.71875 1.96875,-0.71875 0.76086,10e-7 1.43853,0.276696 1.9375,0.71875 0.49897,0.442054 0.8125,1.044678 0.8125,1.71875 0,0.431107 -0.30968,0.742063 -0.53125,1.09375 0.27879,0.03072 0.5363,0.121191 0.8125,0.15625 -0.0421,-0.169567 -0.21875,-0.288031 -0.21875,-0.46875 0,-0.674072 0.31353,-1.276696 0.8125,-1.71875 0.49897,-0.442054 1.17664,-0.71875 1.9375,-0.71875 0.76086,10e-7 1.46978,0.276696 1.96875,0.71875 0.23486,0.208068 0.23679,0.540715 0.375,0.8125 2.88507,-1.626729 4.9375,-4.519363 4.9375,-8 0,-5.194697 -4.32836,-9.406251 -9.65625,-9.40625 z"
           id="path4332"
           style="fill:#ffffff;fill-opacity:1;fill-rule:evenodd;stroke:#000000;stroke-width:1px;stroke-linecap:butt;stroke-linejoin:miter;stroke-opacity:1;display:inline" />
      </g>
    </g>
  </g>
</svg>
