<?xml version="1.0" encoding="UTF-8" standalone="no"?>
<!-- Created with Inkscape (http://www.inkscape.org/) -->
<svg
   xmlns:dc="http://purl.org/dc/elements/1.1/"
   xmlns:cc="http://web.resource.org/cc/"
   xmlns:rdf="http://www.w3.org/1999/02/22-rdf-syntax-ns#"
   xmlns:svg="http://www.w3.org/2000/svg"
   xmlns="http://www.w3.org/2000/svg"
   xmlns:xlink="http://www.w3.org/1999/xlink"
   xmlns:sodipodi="http://inkscape.sourceforge.net/DTD/sodipodi-0.dtd"
   xmlns:inkscape="http://www.inkscape.org/namespaces/inkscape"
   width="96pt"
   height="96pt"
   id="svg2"
   sodipodi:version="0.32"
   inkscape:version="0.42"
   version="1.0"
   sodipodi:docbase="/home/andrew/Desktop/Picture Stuff/sakaiger-stuff"
   sodipodi:docname="sakaiger-dancing.svg"
   inkscape:export-filename="~/sakaiger-dancing-100.png"
   inkscape:export-xdpi="79.675949"
   inkscape:export-ydpi="79.675949">
  <defs
     id="defs4">
    <linearGradient
       id="linearGradient4826">
      <stop
         id="stop4828"
         offset="0"
         style="stop-color:#ffffff;stop-opacity:0;" />
      <stop
         style="stop-color:#000000;stop-opacity:0.21176471;"
         offset="0.6111111"
         id="stop4830" />
      <stop
         id="stop4832"
         offset="1"
         style="stop-color:#000000;stop-opacity:1;" />
    </linearGradient>
    <linearGradient
       id="linearGradient2204">
      <stop
         style="stop-color:#ff8500;stop-opacity:1;"
         offset="0"
         id="stop2212" />
      <stop
         style="stop-color:#000000;stop-opacity:1;"
         offset="1"
         id="stop2210" />
    </linearGradient>
    <linearGradient
       id="linearGradient5746">
      <stop
         style="stop-color:#ffffff;stop-opacity:1;"
         offset="0"
         id="stop5748" />
      <stop
         id="stop4822"
         offset="0.6111111"
         style="stop-color:#ffffff;stop-opacity:0.21428572;" />
      <stop
         style="stop-color:#000000;stop-opacity:0;"
         offset="1"
         id="stop5750" />
    </linearGradient>
    <linearGradient
       id="linearGradient3095">
      <stop
         id="stop3097"
         offset="0"
         style="stop-color:#9d92b9;stop-opacity:1;" />
      <stop
         style="stop-color:#311f85;stop-opacity:1;"
         offset="0.66666669"
         id="stop3101" />
      <stop
         id="stop3099"
         offset="1"
         style="stop-color:#000000;stop-opacity:1;" />
    </linearGradient>
    <linearGradient
       inkscape:collect="always"
       xlink:href="#linearGradient3095"
       id="linearGradient3093"
       x1="49.109367"
       y1="24.890625"
       x2="154.01561"
       y2="142.57812"
       gradientUnits="userSpaceOnUse" />
    <radialGradient
       inkscape:collect="always"
       xlink:href="#linearGradient5746"
       id="radialGradient5752"
       cx="61.328125"
       cy="48.4375"
       fx="61.328125"
       fy="48.4375"
       r="37.109375"
       gradientTransform="matrix(0.856623,1.635079e-2,-1.528858e-2,0.800973,-13.62661,-11.33387)"
       gradientUnits="userSpaceOnUse" />
    <radialGradient
       inkscape:collect="always"
       xlink:href="#linearGradient5746"
       id="radialGradient1344"
       gradientUnits="userSpaceOnUse"
       gradientTransform="matrix(0.856623,1.635079e-2,-1.528858e-2,0.800973,-13.62661,-11.33387)"
       cx="61.328125"
       cy="48.4375"
       fx="61.328125"
       fy="48.4375"
       r="37.109375" />
    <linearGradient
       inkscape:collect="always"
       xlink:href="#linearGradient3095"
       id="linearGradient2215"
       x1="23.718742"
       y1="80.078125"
       x2="177.06248"
       y2="80.078125"
       gradientUnits="userSpaceOnUse" />
    <linearGradient
       inkscape:collect="always"
       xlink:href="#linearGradient3095"
       id="linearGradient1361"
       gradientUnits="userSpaceOnUse"
       x1="23.718742"
       y1="80.078125"
       x2="177.06248"
       y2="80.078125" />
    <radialGradient
       inkscape:collect="always"
       xlink:href="#linearGradient5746"
       id="radialGradient1363"
       gradientUnits="userSpaceOnUse"
       gradientTransform="matrix(0.856623,1.635079e-2,-1.528858e-2,0.800973,-13.62661,-11.33387)"
       cx="61.328125"
       cy="48.4375"
       fx="61.328125"
       fy="48.4375"
       r="37.109375" />
    <linearGradient
       inkscape:collect="always"
       xlink:href="#linearGradient3095"
       id="linearGradient1379"
       gradientUnits="userSpaceOnUse"
       x1="23.718742"
       y1="80.078125"
       x2="177.06248"
       y2="80.078125" />
    <radialGradient
       inkscape:collect="always"
       xlink:href="#linearGradient5746"
       id="radialGradient1381"
       gradientUnits="userSpaceOnUse"
       gradientTransform="matrix(0.856623,1.635079e-2,-1.528858e-2,0.800973,-13.62661,-11.33387)"
       cx="61.328125"
       cy="48.4375"
       fx="61.328125"
       fy="48.4375"
       r="37.109375" />
  </defs>
  <sodipodi:namedview
     id="base"
     pagecolor="#ffffff"
     bordercolor="#666666"
     borderopacity="1.0"
     inkscape:pageopacity="0.0"
     inkscape:pageshadow="2"
     inkscape:zoom="6.4749838"
     inkscape:cx="60.718826"
     inkscape:cy="58.173545"
     inkscape:document-units="px"
     inkscape:current-layer="g1376"
     inkscape:window-width="1485"
     inkscape:window-height="891"
     inkscape:window-x="72"
     inkscape:window-y="78"
     showguides="true"
     inkscape:guide-bbox="true">
    <sodipodi:guide
       orientation="horizontal"
       position="146.88667"
       id="guide14629" />
    <sodipodi:guide
       orientation="vertical"
       position="166.01411"
       id="guide14631" />
    <sodipodi:guide
       orientation="horizontal"
       position="29.764355"
       id="guide2535" />
  </sodipodi:namedview>
  <metadata
     id="metadata7">
    <rdf:RDF>
      <cc:Work
         rdf:about="">
        <dc:format>image/svg+xml</dc:format>
        <dc:type
           rdf:resource="http://purl.org/dc/dcmitype/StillImage" />
        <cc:license
           rdf:resource="http://creativecommons.org/licenses/by/2.0/" />
        <dc:title>Sakaiger-Dancing</dc:title>
        <dc:creator>
          <cc:Agent>
            <dc:title>Andrew Thornton</dc:title>
          </cc:Agent>
        </dc:creator>
        <dc:contributor>
          <cc:Agent>
            <dc:title>Thanks to Johan Van Den Berg for the rings</dc:title>
          </cc:Agent>
        </dc:contributor>
      </cc:Work>
      <cc:License
         rdf:about="http://creativecommons.org/licenses/by/2.0/">
        <cc:permits
           rdf:resource="http://web.resource.org/cc/Reproduction" />
        <cc:permits
           rdf:resource="http://web.resource.org/cc/Distribution" />
        <cc:requires
           rdf:resource="http://web.resource.org/cc/Notice" />
        <cc:requires
           rdf:resource="http://web.resource.org/cc/Attribution" />
        <cc:permits
           rdf:resource="http://web.resource.org/cc/DerivativeWorks" />
      </cc:License>
    </rdf:RDF>
  </metadata>
  <g
     inkscape:groupmode="layer"
     id="layer3"
     inkscape:label="Globe"
     style="display:inline" />
  <g
     inkscape:groupmode="layer"
     id="layer2"
     inkscape:label="Image"
     style="display:inline" />
  <g
     inkscape:label="Layer 1"
     inkscape:groupmode="layer"
     id="layer1"
     style="display:inline">
    <g
       id="g1376"
       style="opacity:1">
      <path
         id="path2471"
         d="M 78.589133,98.931508 C 80.143593,99.491828 81.021793,100.13551 81.021793,100.81128 C 81.021793,103.04686 71.389793,104.86571 59.533313,104.86571 C 47.676823,104.86571 38.063253,103.04686 38.063253,100.81128 C 38.063253,100.1738 38.844323,99.560328 40.237903,99.023648 C 34.912253,99.946078 31.594603,101.23691 31.594603,102.67264 C 31.594603,105.47018 44.185453,107.74067 59.699173,107.74067 C 75.212903,107.74067 87.803743,105.47018 87.803743,102.67264 C 87.803743,101.18644 84.246523,99.858798 78.589133,98.931508 z "
         style="opacity:1;fill:#1894c7;fill-opacity:1;fill-rule:nonzero;stroke:#000000;stroke-width:0.80000001;stroke-miterlimit:4;stroke-dasharray:none;stroke-opacity:1;display:inline" />
      <g
         id="g2506"
         transform="matrix(0.969071,-0.367794,0.244231,0.939224,-12.57906,25.52206)"
         style="opacity:1">
        <path
           style="fill:#ffffff;fill-opacity:1;fill-rule:evenodd;stroke:#000000;stroke-width:1px;stroke-linecap:butt;stroke-linejoin:miter;stroke-opacity:1;display:inline"
           d="M 58.980763,53.399966 C 46.780823,53.53639 36.918263,62.328318 36.918263,73.118716 C 36.918263,77.890848 38.838133,82.270759 42.043263,85.681218 C 40.494553,87.191748 39.512013,89.341918 39.512013,91.743718 C 39.512013,94.024868 39.940953,96.810248 41.355763,98.306218 C 42.770583,99.802188 45.167113,100.02497 47.324513,100.02497 C 49.481913,100.02497 52.034693,99.927188 53.449513,98.431218 C 54.715103,97.093018 55.073053,94.628868 55.137013,92.493718 C 56.473363,92.713848 57.853603,92.806218 59.262013,92.806218 C 60.525893,92.806218 61.773963,92.734318 62.980763,92.556218 C 63.050313,94.675848 63.415563,97.106658 64.668263,98.431218 C 66.083093,99.927188 68.635863,100.02497 70.793263,100.02497 C 72.950653,100.02497 75.315943,99.802188 76.730763,98.306218 C 78.145583,96.810248 78.605763,94.024868 78.605763,91.743718 C 78.605763,89.462558 77.708073,87.395938 76.293263,85.899968 C 79.610213,82.461974 81.605763,77.982892 81.605763,73.118716 C 81.605763,62.243353 71.594783,53.399967 59.262013,53.399966 C 59.165663,53.399966 59.076823,53.398892 58.980763,53.399966 z "
           id="path2473" />
        <path
           style="fill:#1894c7;fill-opacity:1;fill-rule:nonzero;stroke:#000000;stroke-width:1;stroke-miterlimit:4;stroke-dasharray:none;stroke-opacity:1;display:inline"
           d="M 78.798593,63.851575 C 78.798593,66.087155 66.886843,69.581022 58.662153,69.581022 C 50.437473,69.581022 39.828503,66.152212 39.828503,63.916632 C 39.828503,63.279152 39.099293,64.614581 40.066003,64.077901 C 38.839293,64.431903 38.370063,66.722301 38.179893,66.921911 C 36.250193,68.947369 48.015553,72.455982 58.777213,72.455982 C 69.538883,72.455982 79.954613,69.122759 80.084733,66.328247 C 80.118923,65.594096 78.798593,63.175805 78.798593,63.851575 z "
           id="path2521"
           sodipodi:nodetypes="csscssss" />
        <path
           style="fill:#1894c7;fill-opacity:1;fill-rule:nonzero;stroke:#000000;stroke-width:1;stroke-miterlimit:4;stroke-dasharray:none;stroke-opacity:1;display:inline"
           d="M 81.380803,70.913837 C 81.380803,73.149417 65.363713,76.202984 58.878523,76.149167 C 51.923033,76.091821 37.112523,72.455487 36.920863,72.043988 C 36.774413,71.729558 36.954523,73.221226 37.033633,74.654775 C 37.141423,76.607975 48.068153,79.36876 58.829813,79.36876 C 69.591483,79.36876 81.558993,76.381102 81.504693,74.757871 C 81.480553,74.02094 81.380803,70.238067 81.380803,70.913837 z "
           id="path2523"
           sodipodi:nodetypes="cssssss" />
        <path
           style="fill:none;fill-opacity:0.75;fill-rule:evenodd;stroke:#000000;stroke-width:0.95428121;stroke-linecap:round;stroke-linejoin:miter;stroke-miterlimit:4;stroke-dasharray:none;stroke-opacity:1"
           d="M 44.067243,99.505728 L 44.119763,96.133508"
           id="path2533" />
        <path
           style="fill:none;fill-opacity:0.75;fill-rule:evenodd;stroke:#000000;stroke-width:0.95428121;stroke-linecap:round;stroke-linejoin:miter;stroke-miterlimit:4;stroke-dasharray:none;stroke-opacity:1;display:inline"
           d="M 47.109733,99.505728 L 47.162253,96.133508"
           id="path4281" />
        <path
           style="fill:none;fill-opacity:0.75;fill-rule:evenodd;stroke:#000000;stroke-width:0.95428121;stroke-linecap:round;stroke-linejoin:miter;stroke-miterlimit:4;stroke-dasharray:none;stroke-opacity:1;display:inline"
           d="M 50.152343,99.505728 L 50.204863,96.133508"
           id="path4283" />
        <path
           style="fill:none;fill-opacity:0.75;fill-rule:evenodd;stroke:#000000;stroke-width:0.95428121;stroke-linecap:round;stroke-linejoin:miter;stroke-miterlimit:4;stroke-dasharray:none;stroke-opacity:1;display:inline"
           d="M 67.948223,99.505728 L 68.000743,96.133508"
           id="path4285" />
        <path
           style="fill:none;fill-opacity:0.75;fill-rule:evenodd;stroke:#000000;stroke-width:0.95428121;stroke-linecap:round;stroke-linejoin:miter;stroke-miterlimit:4;stroke-dasharray:none;stroke-opacity:1;display:inline"
           d="M 70.934293,99.505728 L 70.986813,96.133508"
           id="path4287" />
        <path
           style="fill:none;fill-opacity:0.75;fill-rule:evenodd;stroke:#000000;stroke-width:0.95428121;stroke-linecap:round;stroke-linejoin:miter;stroke-miterlimit:4;stroke-dasharray:none;stroke-opacity:1;display:inline"
           d="M 73.991633,99.505728 L 74.044153,96.133508"
           id="path4289" />
      </g>
      <g
         id="g2517"
         transform="matrix(0.965044,0.262086,-0.262086,0.965044,11.39306,-14.49971)"
         style="opacity:1"
         inkscape:export-xdpi="79.675949"
         inkscape:export-ydpi="79.675949">
        <path
           sodipodi:type="arc"
           style="fill:#ffffff;fill-opacity:1;stroke:#000000;stroke-opacity:1;display:inline"
           id="path2475"
           sodipodi:cx="55.46875"
           sodipodi:cy="33.671875"
           sodipodi:rx="32.03125"
           sodipodi:ry="28.90625"
           d="M 87.5 33.671875 A 32.03125 28.90625 0 1 1  23.4375,33.671875 A 32.03125 28.90625 0 1 1  87.5 33.671875 z"
           transform="translate(3.430783,2.043258)" />
        <path
           style="fill:#1894c7;fill-opacity:1;stroke:#000000;stroke-opacity:1;display:inline"
           d="M 59.031383,6.805081 C 52.921553,6.805081 47.266003,8.435222 42.406383,11.117587 C 53.985313,14.151487 53.984983,13.493817 49.906383,15.117587 C 46.313243,16.548087 46.529223,16.870777 49.250133,17.898837 C 51.971043,18.926897 55.213963,20.035297 53.375133,20.930084 C 46.620623,24.216873 59.093883,28.086337 59.093883,28.086334 L 59.187633,28.086334 C 59.187633,28.086334 71.660883,24.216869 64.906383,20.930084 C 63.067553,20.035307 66.279233,18.958147 69.000133,17.930087 C 71.721043,16.902017 71.937023,16.548087 68.343883,15.117587 C 64.291623,13.504297 64.363923,14.115767 75.718873,11.148837 C 70.846123,8.445742 65.166733,6.805081 59.031383,6.805081 z "
           id="path2477" />
        <path
           style="fill:#ffffff;fill-opacity:1;stroke:none;stroke-opacity:1;display:inline"
           d="M 26.294643,9.882539 L 26.700893,12.570036 C 26.952833,14.262782 27.282763,15.491507 27.950893,16.663787 C 28.619013,17.836067 29.615683,18.937911 31.169643,20.413787 C 31.759463,20.973972 31.830103,21.162043 32.200893,21.570037 L 39.138393,21.570037 L 39.138393,13.351286 C 38.828053,13.167709 38.634053,13.184981 38.294643,12.913786 C 36.905263,11.803652 35.635153,11.049379 34.232143,10.570036 C 32.829143,10.090689 31.310803,9.882539 29.450893,9.882539 L 26.294643,9.882539 z "
           id="path2479"
           sodipodi:nodetypes="ccsscccsscc" />
        <path
           style="fill:#ffffff;fill-opacity:1;stroke:none;stroke-opacity:1;display:inline"
           d="M 91.782583,10.326575 L 88.563833,10.357825 C 84.946053,10.370267 81.652013,11.499161 79.188833,13.576575 C 78.320053,14.309286 77.656293,14.629115 77.220083,14.576575 L 77.220083,24.107825 C 77.220083,24.107825 81.886303,24.508039 84.311893,24.004609 C 84.910043,23.880461 84.248323,23.311735 86.626333,21.139075 C 89.641343,18.384435 90.869203,16.205635 91.407583,12.764075 L 91.782583,10.326575 z "
           id="path2481"
           sodipodi:nodetypes="ccsccsscc" />
        <path
           style="fill:#c2c2c2;fill-opacity:1;fill-rule:evenodd;stroke:none;stroke-width:1px;stroke-linecap:butt;stroke-linejoin:miter;stroke-opacity:1;display:inline"
           d="M 26.739393,13.213662 L 26.926893,15.432412 C 27.128093,16.563109 27.643343,17.274367 28.176893,18.057412 C 28.710433,18.840459 29.248453,19.696574 30.489393,20.682412 C 30.960413,21.056596 33.193293,22.253635 33.489393,22.526162 C 33.489393,22.526163 34.171873,21.160907 35.395643,19.807412 C 36.619413,18.453917 37.926893,17.088662 37.926893,17.088662 C 37.679063,16.966039 36.447943,15.863561 36.176893,15.682412 C 35.067373,14.940874 34.047303,14.440098 32.926893,14.119912 C 31.806493,13.799722 30.591873,13.322244 29.114393,13.213662 C 27.562373,13.099604 26.739393,13.213662 26.739393,13.213662 z M 89.614393,13.338662 C 88.136913,13.447244 86.922293,13.924724 85.801893,14.244912 C 84.681483,14.565098 83.661413,15.065876 82.551893,15.807412 C 82.280843,15.988561 81.018483,17.091037 80.770643,17.213662 C 80.770643,17.213662 82.109373,18.578919 83.333143,19.932412 C 84.556913,21.285907 85.239393,22.651161 85.239393,22.651162 C 85.535493,22.378635 87.768373,21.181598 88.239393,20.807412 C 89.480333,19.821574 90.018353,18.965457 90.551893,18.182412 C 91.085443,17.399367 91.600693,16.688111 91.801893,15.557412 L 91.958143,13.338662 C 91.958143,13.338662 91.166423,13.224606 89.614393,13.338662 z M 58.895643,41.369912 C 58.780493,41.351516 51.114393,43.895904 51.114393,50.182412 C 51.114393,56.468912 54.531813,57.807413 58.801893,57.807412 C 58.844753,57.807412 58.946533,57.807412 58.989393,57.807412 C 63.259473,57.807414 66.676893,56.468912 66.676893,50.182412 C 66.676893,43.8959 59.010793,41.351516 58.895643,41.369912 z "
           id="path2483" />
        <path
           style="fill:#000000;fill-opacity:1;stroke:none;stroke-opacity:1;display:inline"
           d="M 90.650903,8.855152 C 87.994713,8.660282 83.587693,9.362641 81.088403,10.542646 L 78.307163,11.855146 L 75.494663,10.492465 L 75.552433,11.496224 C 76.202053,11.927852 76.619663,13.042578 76.619663,13.573896 C 76.619663,14.966396 77.546813,14.984367 79.182153,13.605146 C 81.645333,11.527732 84.939373,10.398838 88.557153,10.386396 L 91.775903,10.355146 L 91.400903,12.792646 C 90.862513,16.234207 89.634663,18.413007 86.619653,21.167646 C 84.241643,23.340307 83.909313,24.347453 85.864923,23.686578 C 86.353123,23.521597 87.160263,23.532121 87.777853,24.230146 L 88.150903,24.230146 L 87.369653,22.073896 L 89.057153,20.167646 C 92.373233,16.426375 94.268393,10.623972 92.588403,9.355151 C 92.227533,9.082601 91.536303,8.920101 90.650903,8.855152 z "
           id="path2485"
           sodipodi:nodetypes="cccccsscccssccccsc" />
        <path
           style="fill:#000000;fill-opacity:1;stroke:none;stroke-opacity:1;display:inline"
           d="M 42.497403,10.355202 C 41.648893,10.856389 40.854103,11.319697 40.403653,11.448952 C 39.825253,11.61492 39.457923,11.513991 38.966153,11.230202 C 37.454103,10.357634 36.259313,9.811812 34.934903,9.448951 C 33.610503,9.086101 32.148743,8.912252 30.153663,8.823952 C 28.876143,8.767412 27.912603,8.734892 27.184913,8.792702 C 26.457213,8.850512 25.977213,9.009771 25.684903,9.292701 C 25.392593,9.575631 25.281263,9.986379 25.309903,10.605202 C 25.338543,11.224026 25.512273,12.039714 25.747403,13.105202 C 26.016473,14.324438 26.332833,15.242589 27.028663,16.417699 C 27.724483,17.592819 28.779233,19.040539 30.528663,21.230199 C 30.690333,21.432549 28.259323,25.376172 29.584493,24.546221 L 30.448933,23.57395 C 30.747413,22.459509 33.604763,24.179132 34.104103,23.802503 C 34.540923,23.473033 33.064773,22.073549 31.716163,20.792699 C 30.162213,19.316819 29.165533,18.214979 28.497413,17.042699 C 27.829293,15.870419 27.499353,14.641697 27.247413,12.948952 L 26.841163,10.261452 L 29.997413,10.261452 C 31.857333,10.261452 33.375653,10.469608 34.778653,10.948952 C 36.181663,11.428296 37.451773,12.182568 38.841153,13.292702 C 39.829393,14.08232 40.739103,14.502197 41.309903,14.542702 C 41.595303,14.562955 41.778753,14.497179 41.872403,14.323953 C 41.966053,14.150726 41.701103,13.970681 41.544733,13.59984 C 41.461893,13.40339 41.331693,13.349843 41.413073,12.794923 C 41.496333,12.227219 41.615373,12.177931 42.453213,11.344098 L 42.497403,10.355202 z "
           id="path2487"
           sodipodi:nodetypes="cssssssssssccssscccsssssscc" />
        <path
           style="fill:#1894c7;fill-opacity:1;stroke:#000000;stroke-opacity:1;display:inline"
           d="M 42.650763,39.386308 C 42.607123,39.211748 38.943923,41.392888 27.713263,42.261308 C 28.624503,45.525758 30.063523,48.606278 32.088263,51.323808 L 32.400763,51.355058 C 32.400763,51.355058 43.292113,41.951568 42.650763,39.386308 z "
           id="path2489" />
        <path
           style="fill:#1894c7;fill-opacity:1;stroke:#000000;stroke-opacity:1;display:inline"
           d="M 75.104303,39.412907 C 75.147943,39.238347 78.811143,41.419487 90.041803,42.287907 C 89.130563,45.552357 87.691543,48.632877 85.666803,51.350407 L 85.354303,51.381657 C 85.354303,51.381657 74.462953,41.978167 75.104303,39.412907 z "
           id="path2491" />
        <g
           style="display:inline"
           id="g2493"
           transform="translate(-52.16863,80.47631)">
          <path
             id="path2495"
             d="M 120.57223,-35.450059 C 120.57223,-35.830598 130.35576,-39.604915 131.34216,-39.604915 C 131.56672,-39.604915 131.75046,-39.414663 131.75046,-39.18214 C 131.75046,-38.801602 121.96693,-35.027285 120.98053,-35.027285 C 120.75597,-35.027285 120.57223,-35.217536 120.57223,-35.450059 z "
             style="fill:#000000;display:inline" />
          <path
             id="path2497"
             d="M 120.57223,-30.853641 C 120.57223,-30.473102 130.35576,-26.698785 131.34216,-26.698785 C 131.56672,-26.698785 131.75046,-26.889037 131.75046,-27.12156 C 131.75046,-27.502098 121.96693,-31.276415 120.98053,-31.276415 C 120.75597,-31.276415 120.57223,-31.086164 120.57223,-30.853641 z "
             style="fill:#000000;display:inline" />
          <path
             id="path2499"
             d="M 122.1255,-32.890985 C 122.26187,-32.535722 132.74817,-32.518198 133.66907,-32.87169 C 133.8787,-32.952167 133.98206,-33.195628 133.89873,-33.412708 C 133.76236,-33.767971 123.27606,-33.785494 122.35516,-33.432002 C 122.14553,-33.351526 122.04217,-33.108065 122.1255,-32.890985 z "
             style="fill:#000000;display:inline" />
        </g>
        <path
           style="fill:#000000;display:inline"
           d="M 54.165663,53.831559 C 54.165663,53.570665 55.763363,53.854074 56.328943,53.690719 C 57.628763,53.315292 58.908893,51.188073 58.466433,50.138803 C 58.281533,49.700317 57.636293,49.341553 57.032563,49.341553 C 56.394303,49.341553 55.772403,48.875779 55.546723,48.228716 C 54.760323,45.973887 59.222313,44.347628 61.633193,46.010402 C 63.023113,46.969029 62.667073,49.03797 61.076713,49.244136 C 58.712623,49.550608 58.990483,51.989911 61.577333,53.638788 C 62.481693,54.215234 64.113423,53.208793 64.166933,54.028476 C 64.198323,54.509313 61.561863,54.891963 60.545943,53.905443 C 59.122653,52.523346 59.116513,52.52735 57.807723,53.718388 C 56.434813,54.967776 54.165663,54.67369 54.165663,53.831559 z "
           id="path2501"
           sodipodi:nodetypes="cssssssssssc" />
        <g
           style="display:inline"
           id="g2503"
           transform="translate(-52.05194,80.36993)">
          <path
             sodipodi:nodetypes="csss"
             id="path2505"
             d="M 99.455331,-44.74319 C 96.865507,-44.945084 94.391814,-41.905349 98.318617,-40.202645 C 102.24541,-38.49994 104.0279,-41.791902 101.31538,-44.175622 C 100.7987,-44.629677 100.8698,-44.632922 99.455331,-44.74319 z "
             style="fill:#000000;fill-opacity:1;fill-rule:evenodd;stroke:#000000;stroke-width:0.35111454px;stroke-linecap:butt;stroke-linejoin:miter;stroke-opacity:1" />
          <path
             sodipodi:nodetypes="csss"
             id="path2507"
             d="M 122.4477,-44.752077 C 125.03752,-44.953971 127.51121,-41.914236 123.58441,-40.211532 C 119.65761,-38.508827 117.87512,-41.800789 120.58764,-44.184509 C 121.10432,-44.638564 121.03322,-44.641809 122.4477,-44.752077 z "
             style="fill:#000000;fill-opacity:1;fill-rule:evenodd;stroke:#000000;stroke-width:0.35111454px;stroke-linecap:butt;stroke-linejoin:miter;stroke-opacity:1;display:inline" />
        </g>
        <g
           style="display:inline"
           id="g2509"
           transform="matrix(-1,0,0,1,169.9677,80.47631)">
          <path
             id="path2511"
             d="M 120.57223,-35.450059 C 120.57223,-35.830598 130.35576,-39.604915 131.34216,-39.604915 C 131.56672,-39.604915 131.75046,-39.414663 131.75046,-39.18214 C 131.75046,-38.801602 121.96693,-35.027285 120.98053,-35.027285 C 120.75597,-35.027285 120.57223,-35.217536 120.57223,-35.450059 z "
             style="fill:#000000;display:inline" />
          <path
             id="path2513"
             d="M 120.57223,-30.853641 C 120.57223,-30.473102 130.35576,-26.698785 131.34216,-26.698785 C 131.56672,-26.698785 131.75046,-26.889037 131.75046,-27.12156 C 131.75046,-27.502098 121.96693,-31.276415 120.98053,-31.276415 C 120.75597,-31.276415 120.57223,-31.086164 120.57223,-30.853641 z "
             style="fill:#000000;display:inline" />
          <path
             id="path2515"
             d="M 122.1255,-32.890985 C 122.26187,-32.535722 132.74817,-32.518198 133.66907,-32.87169 C 133.8787,-32.952167 133.98206,-33.195628 133.89873,-33.412708 C 133.76236,-33.767971 123.27606,-33.785494 122.35516,-33.432002 C 122.14553,-33.351526 122.04217,-33.108065 122.1255,-32.890985 z "
             style="fill:#000000;display:inline" />
        </g>
        <path
           style="fill:#1894c7;fill-opacity:1;stroke:#000000;stroke-opacity:1;display:inline"
           d="M 29.401313,24.634634 C 28.131983,27.745514 26.943103,30.915202 26.943103,34.422062 C 26.943103,34.583282 26.981243,34.923172 26.984163,35.083762 L 40.963813,35.040884 L 29.401313,24.634634 z "
           id="path2517"
           sodipodi:nodetypes="csccc" />
        <path
           style="fill:#1894c7;fill-opacity:1;stroke:#000000;stroke-opacity:1;display:inline"
           d="M 88.390403,24.5498 C 89.659733,27.66068 90.870053,31.109073 90.870053,34.615933 C 90.870053,34.777153 90.831913,34.924093 90.828993,35.084683 L 76.785023,35.084683 L 88.390403,24.5498 z "
           id="path2519"
           sodipodi:nodetypes="csccc" />
      </g>
      <path
         id="path2529"
         d="M 88.574613,97.423418 C 97.126753,98.996458 102.48867,101.27879 102.48867,103.79993 C 102.48867,108.54561 83.460993,112.38796 60.009303,112.38796 C 36.557613,112.38796 17.511503,108.54561 17.511503,103.79993 C 17.511503,101.46417 22.122073,99.341948 29.601083,97.792008 C 14.615403,99.660648 4.7400528,102.84881 4.7400528,106.45373 C 4.7400528,112.20016 29.826543,116.84783 60.728043,116.84783 C 91.629563,116.84783 116.6976,112.20016 116.6976,106.45373 C 116.6976,102.59287 105.37649,99.220698 88.574613,97.423418 z "
         style="opacity:1;fill:#1894c7;fill-opacity:1;stroke:#000000;stroke-width:1;stroke-miterlimit:4;stroke-dasharray:none;stroke-opacity:1;display:inline" />
      <g
         transform="matrix(0.575827,0.817571,-0.817571,0.575827,52.64518,-78.20111)"
         id="g4318"
         style="opacity:1">
        <path
           style="fill:#ffffff;fill-opacity:1;fill-rule:evenodd;stroke:#000000;stroke-width:1px;stroke-linecap:butt;stroke-linejoin:miter;stroke-opacity:1;display:inline"
           d="M 130.40625,68.6875 C 130.56813,68.594173 130.80149,68.620496 130.9375,68.5 C 131.43647,68.057946 131.75,67.45532 131.75,66.78125 C 131.75,66.107178 131.43647,65.504554 130.9375,65.0625 C 130.43853,64.620446 129.76085,64.343749 129,64.34375 C 128.50471,64.34375 128.12059,64.60965 127.71875,64.8125 C 128.27743,66.335379 129.18324,67.641865 130.40625,68.6875 z "
           id="path4310" />
        <path
           style="fill:#ffffff;fill-opacity:1;fill-rule:evenodd;stroke:#000000;stroke-width:1px;stroke-linecap:butt;stroke-linejoin:miter;stroke-opacity:1;display:inline"
           d="M 135.75,70.90625 C 135.97157,70.554563 136.28125,70.243607 136.28125,69.8125 C 136.28125,69.138428 135.96772,68.535804 135.46875,68.09375 C 134.96978,67.651696 134.29211,67.375001 133.53125,67.375 C 132.77039,67.375 132.06147,67.651696 131.5625,68.09375 C 131.26312,68.358982 131.23057,68.761118 131.09375,69.125 C 132.43071,70.102854 134.00954,70.714446 135.75,70.90625 z "
           id="path4313" />
        <path
           style="fill:#ffffff;fill-opacity:1;fill-rule:evenodd;stroke:#000000;stroke-width:1px;stroke-linecap:butt;stroke-linejoin:miter;stroke-opacity:1;display:inline"
           d="M 141.4375,69.6875 C 141.29929,69.415715 141.29736,69.083068 141.0625,68.875 C 140.56353,68.432946 139.85461,68.156251 139.09375,68.15625 C 138.33289,68.15625 137.65522,68.432946 137.15625,68.875 C 136.65728,69.317054 136.34375,69.919678 136.34375,70.59375 C 136.34375,70.774469 136.5204,70.892933 136.5625,71.0625 C 136.61569,71.069252 136.66331,71.09375 136.71875,71.09375 C 138.47676,71.09375 140.01673,70.488593 141.4375,69.6875 z "
           id="path4316" />
        <path
           style="fill:#ffffff;fill-opacity:1;fill-rule:evenodd;stroke:#000000;stroke-width:1px;stroke-linecap:butt;stroke-linejoin:miter;stroke-opacity:1;display:inline"
           d="M 136.71875,52.28125 C 131.39086,52.28125 127.0625,56.492802 127.0625,61.6875 C 127.0625,62.798543 127.35563,63.822672 127.71875,64.8125 C 128.12059,64.60965 128.50471,64.34375 129,64.34375 C 129.76085,64.343749 130.43853,64.620446 130.9375,65.0625 C 131.43647,65.504554 131.75,66.107178 131.75,66.78125 C 131.75,67.45532 131.43647,68.057946 130.9375,68.5 C 130.80149,68.620496 130.56813,68.594173 130.40625,68.6875 C 130.61186,68.863286 130.87448,68.964626 131.09375,69.125 C 131.23057,68.761118 131.26312,68.358982 131.5625,68.09375 C 132.06147,67.651696 132.77039,67.375 133.53125,67.375 C 134.29211,67.375001 134.96978,67.651696 135.46875,68.09375 C 135.96772,68.535804 136.28125,69.138428 136.28125,69.8125 C 136.28125,70.243607 135.97157,70.554563 135.75,70.90625 C 136.02879,70.936973 136.2863,71.027441 136.5625,71.0625 C 136.5204,70.892933 136.34375,70.774469 136.34375,70.59375 C 136.34375,69.919678 136.65728,69.317054 137.15625,68.875 C 137.65522,68.432946 138.33289,68.15625 139.09375,68.15625 C 139.85461,68.156251 140.56353,68.432946 141.0625,68.875 C 141.29736,69.083068 141.29929,69.415715 141.4375,69.6875 C 144.32257,68.060771 146.375,65.168137 146.375,61.6875 C 146.375,56.492803 142.04664,52.281249 136.71875,52.28125 z "
           id="path4291" />
      </g>
      <g
         transform="matrix(0.333688,0.942684,0.942684,-0.333688,-67.13041,-40.05821)"
         id="g4324"
         style="opacity:1;display:inline">
        <path
           style="fill:#ffffff;fill-opacity:1;fill-rule:evenodd;stroke:#000000;stroke-width:1px;stroke-linecap:butt;stroke-linejoin:miter;stroke-opacity:1;display:inline"
           d="M 130.40625,68.6875 C 130.56813,68.594173 130.80149,68.620496 130.9375,68.5 C 131.43647,68.057946 131.75,67.45532 131.75,66.78125 C 131.75,66.107178 131.43647,65.504554 130.9375,65.0625 C 130.43853,64.620446 129.76085,64.343749 129,64.34375 C 128.50471,64.34375 128.12059,64.60965 127.71875,64.8125 C 128.27743,66.335379 129.18324,67.641865 130.40625,68.6875 z "
           id="path4326" />
        <path
           style="fill:#ffffff;fill-opacity:1;fill-rule:evenodd;stroke:#000000;stroke-width:1px;stroke-linecap:butt;stroke-linejoin:miter;stroke-opacity:1;display:inline"
           d="M 135.75,70.90625 C 135.97157,70.554563 136.28125,70.243607 136.28125,69.8125 C 136.28125,69.138428 135.96772,68.535804 135.46875,68.09375 C 134.96978,67.651696 134.29211,67.375001 133.53125,67.375 C 132.77039,67.375 132.06147,67.651696 131.5625,68.09375 C 131.26312,68.358982 131.23057,68.761118 131.09375,69.125 C 132.43071,70.102854 134.00954,70.714446 135.75,70.90625 z "
           id="path4328" />
        <path
           style="fill:#ffffff;fill-opacity:1;fill-rule:evenodd;stroke:#000000;stroke-width:1px;stroke-linecap:butt;stroke-linejoin:miter;stroke-opacity:1;display:inline"
           d="M 141.4375,69.6875 C 141.29929,69.415715 141.29736,69.083068 141.0625,68.875 C 140.56353,68.432946 139.85461,68.156251 139.09375,68.15625 C 138.33289,68.15625 137.65522,68.432946 137.15625,68.875 C 136.65728,69.317054 136.34375,69.919678 136.34375,70.59375 C 136.34375,70.774469 136.5204,70.892933 136.5625,71.0625 C 136.61569,71.069252 136.66331,71.09375 136.71875,71.09375 C 138.47676,71.09375 140.01673,70.488593 141.4375,69.6875 z "
           id="path4330" />
        <path
           style="fill:#ffffff;fill-opacity:1;fill-rule:evenodd;stroke:#000000;stroke-width:1px;stroke-linecap:butt;stroke-linejoin:miter;stroke-opacity:1;display:inline"
           d="M 136.71875,52.28125 C 131.39086,52.28125 127.0625,56.492802 127.0625,61.6875 C 127.0625,62.798543 127.35563,63.822672 127.71875,64.8125 C 128.12059,64.60965 128.50471,64.34375 129,64.34375 C 129.76085,64.343749 130.43853,64.620446 130.9375,65.0625 C 131.43647,65.504554 131.75,66.107178 131.75,66.78125 C 131.75,67.45532 131.43647,68.057946 130.9375,68.5 C 130.80149,68.620496 130.56813,68.594173 130.40625,68.6875 C 130.61186,68.863286 130.87448,68.964626 131.09375,69.125 C 131.23057,68.761118 131.26312,68.358982 131.5625,68.09375 C 132.06147,67.651696 132.77039,67.375 133.53125,67.375 C 134.29211,67.375001 134.96978,67.651696 135.46875,68.09375 C 135.96772,68.535804 136.28125,69.138428 136.28125,69.8125 C 136.28125,70.243607 135.97157,70.554563 135.75,70.90625 C 136.02879,70.936973 136.2863,71.027441 136.5625,71.0625 C 136.5204,70.892933 136.34375,70.774469 136.34375,70.59375 C 136.34375,69.919678 136.65728,69.317054 137.15625,68.875 C 137.65522,68.432946 138.33289,68.15625 139.09375,68.15625 C 139.85461,68.156251 140.56353,68.432946 141.0625,68.875 C 141.29736,69.083068 141.29929,69.415715 141.4375,69.6875 C 144.32257,68.060771 146.375,65.168137 146.375,61.6875 C 146.375,56.492803 142.04664,52.281249 136.71875,52.28125 z "
           id="path4332" />
      </g>
    </g>
  </g>
</svg>
