<?xml version="1.0" encoding="UTF-8" standalone="no"?><svg version="1.1" xmlns="http://www.w3.org/2000/svg" xlink="http://www.w3.org/1999/xlink" class="" pagealignment="none" x="0px" y="0px" width="60px" height="56px" viewBox="0 0 60 56" enable-background="new 0 0 60 56" xml:space="preserve" bodybackgroundcolor="rgba(255,255,255,0)"><defs xmlns=""></defs><g xmlns="" type="LAYER" name="workspace" id="workspace" locked="true"></g><g xmlns=""><path class="st0 " width="12" height="11.999999999999996" stroke-miterlimit="3" stroke="none" fill="#25A9DF" d="M24,28.3 C24,24.9862912 26.6862912,22.3 30,22.3 C33.3137088,22.3 36,24.9862912 36,28.3 C36,31.6137088 33.3137088,34.3 30,34.3 C26.6862912,34.3 24,31.6137088 24,28.3 Z "></path><path class="st0 " width="6.600000000000001" height="6.600000000000001" stroke-miterlimit="3" stroke="none" fill="#25A9DF" d="M12.600000000000001,14.2 C12.600000000000001,12.37746016 14.077460160000003,10.899999999999999 15.900000000000002,10.899999999999999 C17.722539840000003,10.899999999999999 19.200000000000003,12.37746016 19.200000000000003,14.2 C19.200000000000003,16.02253984 17.722539840000003,17.5 15.900000000000002,17.5 C14.077460160000003,17.5 12.600000000000001,16.02253984 12.600000000000001,14.2 Z "></path><path class="st0 " width="6.599999999999998" height="6.6000000000000005" stroke-miterlimit="3" stroke="none" fill="#25A9DF" d="M26.7,8.3 C26.7,6.477460160000001 28.17746016,5.000000000000001 30,5.000000000000001 C31.82253984,5.000000000000001 33.3,6.477460160000001 33.3,8.3 C33.3,10.12253984 31.82253984,11.600000000000001 30,11.600000000000001 C28.17746016,11.600000000000001 26.7,10.12253984 26.7,8.3 Z "></path><path class="st0 " width="6.600000000000001" height="6.599999999999998" stroke-miterlimit="3" stroke="none" fill="#25A9DF" d="M40.800000000000004,14.100000000000001 C40.800000000000004,12.277460160000002 42.277460160000004,10.8 44.1,10.8 C45.92253984,10.8 47.400000000000006,12.277460160000002 47.400000000000006,14.100000000000001 C47.400000000000006,15.92253984 45.92253984,17.4 44.1,17.4 C42.277460160000004,17.4 40.800000000000004,15.92253984 40.800000000000004,14.100000000000001 Z "></path><path class="st0 " width="6.600000000000001" height="6.600000000000001" stroke-miterlimit="3" stroke="none" fill="#25A9DF" d="M40.800000000000004,42.4 C40.800000000000004,40.57746016 42.277460160000004,39.1 44.1,39.1 C45.92253984,39.1 47.400000000000006,40.57746016 47.400000000000006,42.4 C47.400000000000006,44.222539839999996 45.92253984,45.7 44.1,45.7 C42.277460160000004,45.7 40.800000000000004,44.222539839999996 40.800000000000004,42.4 Z "></path><path class="st0 " width="6.599999999999998" height="6.600000000000001" stroke-miterlimit="3" stroke="none" fill="#25A9DF" d="M26.7,48.2 C26.7,46.377460160000005 28.17746016,44.900000000000006 30,44.900000000000006 C31.82253984,44.900000000000006 33.3,46.377460160000005 33.3,48.2 C33.3,50.02253984 31.82253984,51.50000000000001 30,51.50000000000001 C28.17746016,51.50000000000001 26.7,50.02253984 26.7,48.2 Z "></path><path class="st0 " width="6.600000000000001" height="6.600000000000001" stroke-miterlimit="3" stroke="none" fill="#25A9DF" d="M46.7,28.3 C46.7,26.47746016 48.17746016,25 50,25 C51.82253984,25 53.300000000000004,26.47746016 53.300000000000004,28.3 C53.300000000000004,30.12253984 51.82253984,31.6 50,31.6 C48.17746016,31.6 46.7,30.12253984 46.7,28.3 Z "></path><path class="st0 " width="6.6000000000000005" height="6.600000000000001" stroke-miterlimit="3" stroke="none" fill="#25A9DF" d="M6.7,28.2 C6.7,26.37746016 8.17746016,24.9 10,24.9 C11.82253984,24.9 13.3,26.37746016 13.3,28.2 C13.3,30.02253984 11.82253984,31.5 10,31.5 C8.17746016,31.5 6.7,30.02253984 6.7,28.2 Z "></path><path class="st0 " width="6.599999999999998" height="6.600000000000001" stroke-miterlimit="3" stroke="none" fill="#25A9DF" d="M12.7,42.4 C12.7,40.57746016 14.17746016,39.1 16,39.1 C17.82253984,39.1 19.299999999999997,40.57746016 19.299999999999997,42.4 C19.299999999999997,44.222539839999996 17.82253984,45.7 16,45.7 C14.17746016,45.7 12.7,44.222539839999996 12.7,42.4 Z "></path><path class="st0 " width="4" height="4" stroke-miterlimit="3" stroke="none" fill="#0074A7" d="M28,16.3 C28,15.195430400000001 28.8954304,14.3 30,14.3 C31.1045696,14.3 32,15.195430400000001 32,16.3 C32,17.404569600000002 31.1045696,18.3 30,18.3 C28.8954304,18.3 28,17.404569600000002 28,16.3 Z "></path><path class="st0 " width="3.8000000000000007" height="3.799999999999997" stroke-miterlimit="3" stroke="none" fill="#0074A7" d="M28.1,40.2 C28.1,39.15065888 28.95065888,38.300000000000004 30,38.300000000000004 C31.04934112,38.300000000000004 31.900000000000002,39.15065888 31.900000000000002,40.2 C31.900000000000002,41.249341120000004 31.04934112,42.1 30,42.1 C28.95065888,42.1 28.1,41.249341120000004 28.1,40.2 Z "></path><path class="st0 " width="4" height="4" stroke-miterlimit="3" stroke="none" fill="#0074A7" d="M40,28.2 C40,27.095430399999998 40.8954304,26.2 42,26.2 C43.1045696,26.2 44,27.095430399999998 44,28.2 C44,29.3045696 43.1045696,30.2 42,30.2 C40.8954304,30.2 40,29.3045696 40,28.2 Z "></path><path class="st0 " width="3.8000000000000007" height="3.8000000000000007" stroke-miterlimit="3" stroke="none" fill="#0074A7" d="M16.200000000000003,28.2 C16.200000000000003,27.150658879999998 17.05065888,26.3 18.1,26.3 C19.149341120000003,26.3 20.000000000000004,27.150658879999998 20.000000000000004,28.2 C20.000000000000004,29.24934112 19.149341120000003,30.1 18.1,30.1 C17.05065888,30.1 16.200000000000003,29.24934112 16.200000000000003,28.2 Z "></path><path class="st0 " width="4" height="4" stroke-miterlimit="3" stroke="none" fill="#0074A7" d="M36.5,19.8 C36.5,18.6954304 37.3954304,17.8 38.5,17.8 C39.6045696,17.8 40.5,18.6954304 40.5,19.8 C40.5,20.904569600000002 39.6045696,21.8 38.5,21.8 C37.3954304,21.8 36.5,20.904569600000002 36.5,19.8 Z "></path><path class="st0 " width="4" height="4" stroke-miterlimit="3" stroke="none" fill="#0074A7" d="M19.6,36.7 C19.6,35.595430400000005 20.4954304,34.7 21.6,34.7 C22.704569600000003,34.7 23.6,35.595430400000005 23.6,36.7 C23.6,37.8045696 22.704569600000003,38.7 21.6,38.7 C20.4954304,38.7 19.6,37.8045696 19.6,36.7 Z "></path><path class="st0 " width="3.924999999999997" height="3.999999999999986" stroke-miterlimit="3" stroke="none" fill="#0074A7" d="M39.9,35.3 C39.1,34.5 37.9,34.5 37.1,35.3 C36.300000000000004,36.099999999999994 36.300000000000004,37.3 37.1,38.099999999999994 C37.9,38.89999999999999 39.1,38.89999999999999 39.9,38.099999999999994 C40.6,37.3 40.6,36.1 39.9,35.3 Z "></path><path class="st0 " width="3.8000000000000007" height="3.8000000000000007" stroke-miterlimit="3" stroke="none" fill="#0074A7" d="M19.700000000000003,19.8 C19.700000000000003,18.75065888 20.55065888,17.900000000000002 21.6,17.900000000000002 C22.649341120000003,17.900000000000002 23.500000000000004,18.75065888 23.500000000000004,19.8 C23.500000000000004,20.849341120000002 22.649341120000003,21.700000000000003 21.6,21.700000000000003 C20.55065888,21.700000000000003 19.700000000000003,20.849341120000002 19.700000000000003,19.8 Z "></path><path class="st0 " width="3.799999999999997" height="3.799999999999999" stroke-miterlimit="3" stroke="none" fill="#0074A7" d="M32.6,17.1 C32.6,16.05065888 33.45065888,15.200000000000001 34.5,15.200000000000001 C35.54934112,15.200000000000001 36.4,16.05065888 36.4,17.1 C36.4,18.149341120000003 35.54934112,19 34.5,19 C33.45065888,19 32.6,18.149341120000003 32.6,17.1 Z "></path><path class="st0 " width="4" height="4" stroke-miterlimit="3" stroke="none" fill="#0074A7" d="M23.6,39.3 C23.6,38.1954304 24.4954304,37.3 25.6,37.3 C26.704569600000003,37.3 27.6,38.1954304 27.6,39.3 C27.6,40.404569599999995 26.704569600000003,41.3 25.6,41.3 C24.4954304,41.3 23.6,40.404569599999995 23.6,39.3 Z "></path><path class="st0 " width="3.8703999999999965" height="3.8703999999999965" stroke-miterlimit="3" stroke="none" fill="#0074A7" d="M40.4,34.5 C41.4,34.9 42.5,34.4 42.9,33.4 C43.3,32.4 42.8,31.299999999999997 41.8,30.9 C40.8,30.5 39.699999999999996,31 39.3,32 C38.9,33 39.4,34.1 40.4,34.5 Z "></path><path class="st0 " width="3.8000000000000007" height="3.8000000000000007" stroke-miterlimit="3" stroke="none" fill="#0074A7" d="M17,23.8 C17,22.75065888 17.850658879999997,21.900000000000002 18.9,21.900000000000002 C19.94934112,21.900000000000002 20.8,22.75065888 20.8,23.8 C20.8,24.849341120000002 19.94934112,25.700000000000003 18.9,25.700000000000003 C17.850658879999997,25.700000000000003 17,24.849341120000002 17,23.8 Z "></path><path class="st0 " width="3.987000000000002" height="3.987000000000002" stroke-miterlimit="3" stroke="none" fill="#0074A7" d="M41.8,25.3 C42.8,24.900000000000002 43.3,23.7 42.8,22.7 C42.4,21.7 41.199999999999996,21.2 40.199999999999996,21.7 C39.199999999999996,22.099999999999998 38.699999999999996,23.3 39.199999999999996,24.3 C39.7,25.3 40.8,25.8 41.8,25.3 Z "></path><path class="st0 " width="4" height="4" stroke-miterlimit="3" stroke="none" fill="#0074A7" d="M17,32.9 C17,31.795430399999997 17.8954304,30.9 19,30.9 C20.1045696,30.9 21,31.795430399999997 21,32.9 C21,34.004569599999996 20.1045696,34.9 19,34.9 C17.8954304,34.9 17,34.004569599999996 17,32.9 Z "></path><path class="st0 " width="3.987000000000002" height="3.9295000000000044" stroke-miterlimit="3" stroke="none" fill="#0074A7" d="M34,37.4 C33,37.8 32.5,39 33,40 C33.4,41 34.6,41.5 35.6,41 C36.6,40.6 37.1,39.4 36.6,38.4 C36.1,37.5 34.9,37 34,37.4 Z "></path><path class="st0 " width="4" height="4" stroke-miterlimit="3" stroke="none" fill="#0074A7" d="M23.3,17.2 C23.3,16.095430399999998 24.1954304,15.2 25.3,15.2 C26.404569600000002,15.2 27.3,16.095430399999998 27.3,17.2 C27.3,18.3045696 26.404569600000002,19.2 25.3,19.2 C24.1954304,19.2 23.3,18.3045696 23.3,17.2 Z "></path></g></svg>
